<?xml version="1.0" standalone="no"?><!DOCTYPE svg PUBLIC "-//W3C//DTD SVG 1.1//EN" "http://www.w3.org/Graphics/SVG/1.1/DTD/svg11.dtd"><svg t="1586940558107" class="icon" viewBox="0 0 1024 1024" version="1.1" xmlns="http://www.w3.org/2000/svg" p-id="3956" xmlns:xlink="http://www.w3.org/1999/xlink" width="200" height="200"><defs><style type="text/css"></style></defs><path d="M811.446857 73.142857c8.557714 0 17.152 1.718857 25.161143 5.156572a63.268571 63.268571 0 0 1 41.142857 58.843428v736.585143a63.268571 63.268571 0 0 1-41.142857 58.843429 63.158857 63.158857 0 0 1-25.161143 4.571428 69.485714 69.485714 0 0 1-47.433143-18.285714L512 676.571429l-252.013714 242.285714a69.997714 69.997714 0 0 1-47.433143 18.870857c-8.557714 0-17.152-1.718857-25.161143-5.156571a63.268571 63.268571 0 0 1-41.142857-58.843429V137.142857a63.268571 63.268571 0 0 1 41.142857-58.843428c8.009143-3.437714 16.566857-5.156571 25.161143-5.156572h598.857143z" fill="" p-id="3957"></path></svg>